<svg xmlns="http://www.w3.org/2000/svg" height="69.28" width="480.013" xml:space="preserve"><path style="fill:#ec1d27;fill-opacity:1;fill-rule:nonzero;stroke:none" d="m837.773 73.098 2.649-1.672L800.273 7.07c-65.972-17.86-140.085 1.184-140.085 106.953V263l-.106-17.773c0 20.863-3.387 19.832-48.781 57.23l-29.36 25.375v3.883h78.59l29.547 93.797h51.34v-93.797h86.531V263h-86.531V116.289c0-58.457 39.953-59.785 96.355-43.191zM2498.18 212.44V8.059h-80.94v180.086c0 35.683-9.04 78.878-65.73 78.878-53.25 0-74.16-39.132-74.16-82.265V8.058h-80.84v239.18c0 40.742-2.2 46.825-35.14 67.684l-20.27 13.398v3.586h63.22v-.195h69.01v-49.277h1.32c26.66 39.609 67.15 57.421 102.98 57.421 76.47.004 120.55-52.371 120.55-127.414zm-766.93 120.645h75.15v-69.063h-75.15V8.059h-81.24v228.046c0 27.137-5.44 33.079-37.64 58.547l-41.23 33.528v4.906h78.87v59.043c0 87.855 57.28 143.57 181.31 118.828l18.75-68.512-3.88-3.191c-64.78 25.469-114.94 9.226-114.94-47.363v-58.805zm1796.83 2.055v-78.235c-13.51 3.387-26.26 6.094-39.12 6.094-76.21 0-87-64.062-87-81.633V8.047h-80.89v239.191c0 40.742-2.16 46.825-35.09 67.684l-20.27 13.398-.25 3.586h136.5v-51.441h1.43c17.47 37.105 53.21 59.39 95.72 59.39 10.11.004 19.53-2.058 28.97-4.714zM2720.43 72.805c-59.29 0-95.07 46.531-95.07 97.078 0 50.605 35.78 97.14 95.07 97.14 59.35 0 95.08-46.535 95.08-97.14 0-50.555-35.73-97.078-95.08-97.078zm37.36 426.765 11.24-7.507c39.02-24.641 43.83-31.809 43.83-73.961V290.625h-2.01c-16.93 20.859-49.28 49.23-109.9 49.23-92.42 0-156.48-74.167-156.48-169.972C2544.47 74.172 2604.5 0 2704.24 0c45.2 0 87.71 17.531 111.27 56.602h1.33l8.58-48.543h68.28v497.453h-135.91v-5.942zM1038.87 72.805c-59.343 0-95.124 46.531-95.124 97.078 0 50.605 35.781 97.14 95.124 97.14 59.4 0 95.13-46.535 95.13-97.14 0-50.555-35.74-97.078-95.13-97.078zm40.45 426.765 25.32-16.347c23.12-14.672 26.61-21.739 26.61-42.305V290.625h-2.02c-16.84 20.859-49.23 49.23-109.9 49.23-92.428 0-156.482-74.167-156.482-169.972C862.848 74.172 922.93 0 1022.72 0c45.16 0 87.67 17.531 111.27 56.602h1.33l8.48-48.543h68.38v497.453h-132.87v-5.942zM435.133 331.715h124.476V8.059h-80.992v254.644h-.047c0 26.793-1.476 31.067-30.527 53.492l-12.91 10.211zM571.098 441.66c0-27.637-22.969-48.543-52.621-48.543-29.7 0-51.243 22.969-51.243 48.543 0 25.676 21.543 48.594 51.243 48.594 29.648-.004 52.621-20.914 52.621-48.594zM220.93 80.898h-78.192v137.579h81.575c68.761 0 101.167-17.52 101.167-67.43 0-62.734-60.769-70.149-104.55-70.149zm-78.192 331.754h70.094c47.41 0 62.09-6.523 76.465-20.172 10.906-10.355 15.906-24.589 15.957-41.175 0-15.414-5.297-29.211-16.547-39.914-14.039-13.442-33.277-20.067-68.473-20.067h-77.496zM307.27 259.609v1.379c49.234 14.817 82.902 50.496 82.902 104.496 0 86.973-74.215 120.004-146.223 120.004H69.457v.051H0v-7.125l24.492-20.805c29.41-23.957 33.23-28.621 33.23-50.261V8.047h172.044c90.273 0 180.679 32.402 180.679 136.262 0 61.308-43.242 108.574-103.175 115.3zm1583.93-57.332c6.05 46.582 35.73 76.864 83.55 76.864 50.6 0 81.68-29.649 82.31-76.864zm88.01 137.582c-97.73 0-168.94-68.125-168.94-169.964 0-101.797 74.85-169.883 183.02-169.883 31.71 0 61.27 5.496 86.5 16.004l46.04 76.914-6.14 3.293c-39.61-20.762-81.33-31.465-119.04-31.465-55.81 0-104.05 28.367-109.45 76.875H2138c10.7 126.808-57.47 198.226-158.79 198.226zm1042.7-137.582c5.99 46.582 35.74 76.864 83.55 76.864 50.6 0 81.67-29.649 82.31-76.864zm88.11 137.582c-97.87 0-169.05-68.125-169.05-169.964 0-101.797 74.9-169.883 183.13-169.883 31.57 0 61.15 5.496 86.29 16.004l46.19 76.914-6.09 3.293c-39.66-20.762-81.43-31.465-119.17-31.465-55.76 0-103.97 28.367-109.41 76.875h246.74c10.75 126.808-57.43 198.226-158.63 198.226zM1340.69 202.277c6.09 46.582 35.73 76.864 83.64 76.864 50.61 0 81.63-29.649 82.26-76.864zm88.1 137.582c-97.77 0-168.99-68.125-168.99-169.964C1259.8 68.098 1334.65.012 1442.89.012c31.61 0 61.21 5.496 86.38 16.004l46.15 76.914-6.14 3.293c-39.66-20.762-81.37-31.465-119.07-31.465-55.82 0-104.06 28.367-109.52 76.875h246.8v22.226c-.01 112.633-68.33 176-158.7 176M3549.23 466.789c2.35.145 4.51.566 6.28 1.274 1.81.71 3.29 1.839 4.41 3.386 1.09 1.571 1.62 3.684 1.62 6.426 0 2.313-.44 4.176-1.27 5.578-.84 1.426-2.02 2.547-3.43 3.414-1.49.832-3.1 1.449-4.96 1.719-1.82.316-3.74.457-5.7.457h-14.67v-22.5h10.55c2.4 0 4.82.07 7.17.246zm-25.72-35.879v64.942h24.89c7.41 0 12.7-1.524 16.09-4.622 3.38-3.066 5.06-7.527 5.06-13.355 0-2.82-.44-5.297-1.28-7.406-.84-2.11-2.02-3.895-3.53-5.375a18.077 18.077 0 0 0-5.21-3.461c-2.01-.832-4.07-1.5-6.28-1.863l19.34-28.86h-9.38l-18.26 28.86h-13.45v-28.86zm1.42 76.836c-5.79-2.5-10.8-5.914-15.03-10.234-4.22-4.348-7.55-9.426-9.9-15.235-2.36-5.871-3.54-12.148-3.54-18.902 0-6.742 1.18-13.031 3.54-18.867 2.35-5.863 5.68-10.949 9.9-15.238 4.23-4.372 9.24-7.786 15.03-10.309 5.79-2.508 12.13-3.762 18.95-3.762 6.73 0 13 1.254 18.84 3.762 5.75 2.523 10.76 5.937 15.02 10.309 4.22 4.285 7.51 9.367 9.93 15.238 2.45 5.84 3.68 12.125 3.68 18.867 0 6.754-1.23 13.031-3.68 18.902-2.42 5.809-5.71 10.887-9.93 15.235-4.26 4.32-9.27 7.734-15.02 10.234-5.84 2.547-12.11 3.801-18.84 3.801-6.82 0-13.16-1.25-18.95-3.801zm41.18 7.488c6.83-2.847 12.76-6.82 17.82-11.91 5.01-5.097 8.98-11.039 11.83-17.883 2.89-6.875 4.32-14.234 4.32-22.066 0-7.949-1.43-15.336-4.32-22.109-2.85-6.821-6.82-12.739-11.83-17.766-5.06-5.039-10.99-8.984-17.82-11.836-6.87-2.863-14.28-4.316-22.23-4.316-7.95 0-15.36 1.453-22.18 4.316-6.84 2.852-12.82 6.797-17.83 11.836-5.05 5.027-8.98 10.949-11.87 17.766-2.85 6.773-4.28 14.16-4.28 22.109 0 7.832 1.43 15.191 4.28 22.066 2.89 6.844 6.82 12.786 11.87 17.883 5.01 5.09 10.99 9.063 17.83 11.91 6.82 2.868 14.23 4.321 22.18 4.321 7.95 0 15.36-1.453 22.23-4.321" transform="matrix(.13333 0 0 -.13333 0 69.28)"/></svg>
